<?xml version="1.0" standalone="no"?>
<!DOCTYPE svg PUBLIC "-//W3C//DTD SVG 20010904//EN"
 "http://www.w3.org/TR/2001/REC-SVG-20010904/DTD/svg10.dtd">
<svg version="1.0" xmlns="http://www.w3.org/2000/svg"
 width="200.000000pt" height="200.000000pt" viewBox="0 0 200.000000 200.000000"
 preserveAspectRatio="xMidYMid meet">

<g transform="translate(0.000000,200.000000) scale(0.100000,-0.100000)"
fill="#000000" stroke="none">
<path d="M891 1695 c-16 -14 -35 -41 -41 -61 -9 -26 -23 -40 -59 -58 -99 -50
-178 -162 -201 -285 -5 -30 -10 -99 -10 -155 0 -185 -43 -371 -116 -505 -37
-67 -107 -163 -142 -194 -11 -11 -18 -25 -15 -33 4 -11 48 -14 243 -14 l237 0
17 -45 c21 -54 83 -110 133 -120 69 -13 164 59 180 137 l5 28 242 2 c277 3
277 3 208 86 -86 103 -144 219 -177 353 -10 38 -20 145 -25 264 -4 110 -13
214 -18 230 -33 107 -111 201 -206 251 -31 16 -56 35 -56 42 0 7 -7 26 -15 42
-32 62 -129 80 -184 35z m116 -57 c14 -13 23 -33 23 -50 0 -26 7 -32 56 -54
74 -33 156 -111 185 -177 19 -45 23 -77 30 -238 12 -280 52 -434 153 -588 l54
-81 -550 0 c-437 0 -548 3 -542 13 4 6 18 26 30 42 71 96 133 235 165 373 11
46 26 166 33 266 12 161 16 187 40 233 34 68 87 120 153 150 46 21 53 28 53
52 0 39 35 81 68 81 14 0 36 -10 49 -22z m42 -1270 c-33 -66 -84 -92 -129 -68
-17 9 -60 69 -60 84 0 3 45 6 100 6 l101 0 -12 -22z"/>
</g>
</svg>
